HIERARCHY
ROOT SpineBase
{
  OFFSET 0.000000 0.000000 0.000000
  CHANNELS 6 Xposition Yposition Zposition Zrotation Xrotation Yrotation
  JOINT SpineMid
  {
    OFFSET -0.000000 31.863818 0.000000
    CHANNELS 3 Zrotation Xrotation Yrotation
    JOINT SpineShoulder
    {
      OFFSET 0.164398 23.644562 -0.948448
      CHANNELS 3 Zrotation Xrotation Yrotation
      JOINT Neck
      {
        OFFSET 0.083278 7.834570 -0.691097
        CHANNELS 3 Zrotation Xrotation Yrotation
        JOINT Head
        {
          OFFSET 1.496065 11.480463 -5.809381
          CHANNELS 3 Zrotation Xrotation Yrotation
          End Site
          {
            OFFSET 0 0 0
          }
        }
      }
      JOINT ShoulderLeft
      {
        OFFSET -17.305322 2.004061 0.124807
        CHANNELS 3 Zrotation Xrotation Yrotation
        JOINT ElbowLeft
        {
          OFFSET -4.945215 -25.714215 1.549170
          CHANNELS 3 Zrotation Xrotation Yrotation
          JOINT WristLeft
          {
            OFFSET -0.847246 -24.722093 -4.835736
            CHANNELS 3 Zrotation Xrotation Yrotation
            JOINT HandLeft
            {
              OFFSET 0.564156 -7.551382 -0.992015
              CHANNELS 3 Zrotation Xrotation Yrotation
              JOINT HandTipLeft
              {
                OFFSET 1.608021 -7.220301 -1.387159
                CHANNELS 3 Zrotation Xrotation Yrotation
                End Site
                {
                  OFFSET 0 0 0
                }
              }
              JOINT ThumbLeft
              {
                OFFSET -2.713679 -1.459384 -2.284182
                CHANNELS 3 Zrotation Xrotation Yrotation
                End Site
                {
                  OFFSET 0 0 0
                }
              }
            }
          }
        }
      }
      JOINT ShoulderRight
      {
        OFFSET 16.573777 0.255304 3.753351
        CHANNELS 3 Zrotation Xrotation Yrotation
        JOINT ElbowRight
        {
          OFFSET 2.073182 -26.466600 -1.385228
          CHANNELS 3 Zrotation Xrotation Yrotation
          JOINT WristRight
          {
            OFFSET -0.028249 -22.681495 -10.753508
            CHANNELS 3 Zrotation Xrotation Yrotation
            JOINT HandRight
            {
              OFFSET -1.872877 -4.285760 -2.115547
              CHANNELS 3 Zrotation Xrotation Yrotation
              JOINT HandTipRight
              {
                OFFSET 0.441679 -5.438579 -3.224483
                CHANNELS 3 Zrotation Xrotation Yrotation
                End Site
                {
                  OFFSET 0 0 0
                }
              }
              JOINT ThumbRight
              {
                OFFSET 3.489974 0.020761 -3.651428
                CHANNELS 3 Zrotation Xrotation Yrotation
                End Site
                {
                  OFFSET 0 0 0
                }
              }
            }
          }
        }
      }
    }
  }
  JOINT HipLeft
  {
    OFFSET -7.421479 1.399423 -4.778096
    CHANNELS 3 Zrotation Xrotation Yrotation
    JOINT KneeLeft
    {
      OFFSET -1.527679 -33.622805 -7.228834
      CHANNELS 3 Zrotation Xrotation Yrotation
      JOINT AnkleLeft
      {
        OFFSET -2.183644 -36.717881 6.767543
        CHANNELS 3 Zrotation Xrotation Yrotation
        JOINT FootLeft
        {
          OFFSET 1.206319 -5.162979 -6.382530
          CHANNELS 3 Zrotation Xrotation Yrotation
          End Site
          {
            OFFSET 0 0 0
          }
        }
      }
    }
  }
  JOINT HipRight
  {
    OFFSET 8.124021 0.366602 -2.646805
    CHANNELS 3 Zrotation Xrotation Yrotation
    JOINT KneeRight
    {
      OFFSET 2.472200 -34.098211 -4.209858
      CHANNELS 3 Zrotation Xrotation Yrotation
      JOINT AnkleRight
      {
        OFFSET -2.847773 -33.752277 5.890705
        CHANNELS 3 Zrotation Xrotation Yrotation
        JOINT FootRight
        {
          OFFSET -0.804028 -8.169866 -6.155018
          CHANNELS 3 Zrotation Xrotation Yrotation
          End Site
          {
            OFFSET 0 0 0
          }
        }
      }
    }
  }
}
MOTION
Frames: 10
Frame Time: 0.033333
-25.528603 60.411208 364.800211 -12.886056 -23.674589 19.865014 1.527206 0.993488 -22.937782 -0.382265 0.406694 -0.370178 4.411997 51.083850 -4.725517 0.000000 0.000000 0.000000 13.488190 -8.723644 4.394471 76.155839 47.330331 -68.324860 27.222874 -10.432792 21.048614 11.360552 23.139152 -11.707874 0.000000 0.000000 0.000000 0.000000 0.000000 0.000000 1.409072 5.236232 0.153395 -26.464640 31.005155 28.929226 23.971114 -1.884875 -14.338791 -33.896520 31.132320 33.900317 0.000000 0.000000 0.000000 0.000000 0.000000 0.000000 20.336017 33.344066 -24.507819 0.914686 -27.234477 -2.696067 -5.570167 3.515938 15.083696 0.000000 0.000000 0.000000 47.564221 31.807997 -36.793093 5.387281 -32.593272 9.813645 5.483142 54.550091 -26.099791 0.000000 0.000000 0.000000
-25.706010 57.235616 365.511001 -13.672618 -24.609629 20.277081 2.018594 1.446760 -23.646008 -0.510160 -0.270504 -0.435889 -3.797445 51.520792 -2.586289 0.000000 0.000000 0.000000 21.033909 -9.797410 4.269206 72.884543 50.862699 -73.255902 26.866316 -6.841348 19.426056 9.225973 19.837441 -8.261756 0.000000 0.000000 0.000000 0.000000 0.000000 0.000000 -0.681210 9.202425 1.533175 -25.123358 32.165442 28.943757 27.201992 -3.373364 -15.308013 -37.547309 30.538924 35.353883 0.000000 0.000000 0.000000 0.000000 0.000000 0.000000 23.828855 26.434417 -27.074551 -7.749586 -17.685193 -3.740806 -2.578616 0.711370 17.171779 0.000000 0.000000 0.000000 49.101900 31.965840 -37.923398 4.876505 -33.708484 9.573803 15.626813 53.548625 -35.265870 0.000000 0.000000 0.000000
-26.090314 54.354527 366.707573 -14.288251 -24.870436 21.909083 2.029981 1.458201 -25.445019 -0.588641 0.059968 -0.423290 -9.162840 49.809652 -1.380910 0.000000 0.000000 0.000000 25.092180 -12.436830 4.849837 75.994160 52.112071 -80.463292 21.444322 -0.313174 15.156626 11.110801 13.993203 -2.260613 0.000000 0.000000 0.000000 0.000000 0.000000 0.000000 -4.577255 15.177796 4.357244 -18.827632 27.233239 24.401277 26.543250 -4.357860 -14.882103 -36.610830 30.834215 35.053630 0.000000 0.000000 0.000000 0.000000 0.000000 0.000000 26.741307 20.570692 -30.001268 -16.620650 -17.496394 -4.780435 1.470854 11.998111 20.112564 0.000000 0.000000 0.000000 49.807207 29.996192 -39.027023 4.066061 -33.456453 9.026854 25.147994 51.453681 -43.801932 0.000000 0.000000 0.000000
-26.589882 51.580079 368.844758 -14.076297 -24.917849 22.809600 1.844448 1.219467 -26.307052 -0.716916 0.538968 -0.352107 -13.438956 43.297779 -1.369377 0.000000 0.000000 0.000000 28.738321 -13.159233 5.016830 76.135530 53.245752 -84.342165 11.651231 8.369056 9.179224 14.709759 3.523095 7.865624 0.000000 0.000000 0.000000 0.000000 0.000000 0.000000 -9.486277 23.342468 8.423871 -11.828515 16.361118 17.819074 22.658510 -4.260381 -13.472540 -32.149075 31.615520 33.282911 0.000000 0.000000 0.000000 0.000000 0.000000 0.000000 37.243594 27.656865 -36.321332 -23.230416 -30.453613 -8.577308 -0.374134 15.874132 24.940208 0.000000 0.000000 0.000000 54.735459 30.280793 -41.993904 1.354521 -36.844153 8.987409 28.909130 51.525641 -47.395804 0.000000 0.000000 0.000000
-27.197626 49.942804 369.945092 -14.854197 -24.087770 21.810717 2.169235 0.828388 -25.494584 -0.678132 0.656034 -0.362484 -13.818727 36.654508 -2.390929 0.000000 0.000000 0.000000 30.163736 -12.450554 4.764723 72.236437 54.138394 -81.357097 0.362987 18.303729 3.505997 24.167236 -4.725363 19.135226 0.000000 0.000000 0.000000 0.000000 0.000000 0.000000 -13.379094 29.749755 12.184203 -6.610451 2.330041 11.892057 14.781049 -4.843215 -9.545058 -21.076672 32.637517 26.927892 0.000000 0.000000 0.000000 0.000000 0.000000 0.000000 47.026589 26.566804 -40.513572 -35.275225 -31.773122 -12.235783 0.590949 14.074663 28.926370 0.000000 0.000000 0.000000 57.765381 29.511412 -42.027465 -1.169872 -36.203347 8.514738 32.181210 57.737859 -51.387641 0.000000 0.000000 0.000000
-27.230714 48.461827 370.554703 -14.860144 -22.683338 18.609338 1.510443 0.611795 -22.081251 -0.484002 0.580709 -0.423205 -11.259516 29.594733 -3.461836 0.000000 0.000000 0.000000 27.268506 -18.638854 6.933745 85.941039 52.567405 -93.219944 -17.969866 23.888611 -0.242496 40.428005 1.848739 29.896436 0.000000 0.000000 0.000000 0.000000 0.000000 0.000000 -17.389615 34.808605 16.049985 -1.223994 -17.557853 5.560751 1.401057 -10.204390 1.150960 1.821601 26.313416 5.436711 0.000000 0.000000 0.000000 0.000000 0.000000 0.000000 50.181725 24.111884 -39.398352 -44.968350 -29.191549 -13.991943 1.799492 12.701629 32.613559 0.000000 0.000000 0.000000 59.870287 32.269830 -40.919238 -3.484572 -39.370158 8.412376 29.041344 58.185070 -48.372147 0.000000 0.000000 0.000000
-26.856961 48.535891 370.424670 -14.765972 -21.648103 11.921031 0.860905 0.587926 -15.190451 -0.302472 1.063988 -0.415685 -7.094301 25.819453 -3.860252 0.000000 0.000000 0.000000 26.624330 -18.567418 6.890000 83.356339 52.206720 -89.198988 -25.880231 27.001240 -1.261174 43.028971 18.028741 30.325072 0.000000 0.000000 0.000000 0.000000 0.000000 0.000000 -17.793253 34.185644 16.174249 6.044814 -42.535744 -0.415131 -7.600630 -10.314088 20.641630 14.923040 8.293265 -24.409835 0.000000 0.000000 0.000000 0.000000 0.000000 0.000000 47.514912 19.720893 -32.346441 -52.170904 -20.300105 -10.896733 4.852049 9.304139 34.808489 0.000000 0.000000 0.000000 61.287618 39.896317 -38.814027 -5.141615 -43.851531 8.305356 20.621194 55.273179 -39.799587 0.000000 0.000000 0.000000
-25.305628 49.211106 367.908774 -14.035170 -19.062422 5.443606 -0.070505 -0.258394 -8.247904 -0.186586 1.229947 -0.425149 -3.140843 24.138144 -3.905640 0.000000 0.000000 0.000000 31.449538 -13.318892 5.369195 66.295394 53.651910 -74.853804 -23.686672 28.254632 -0.912279 35.280040 30.941378 25.120411 0.000000 0.000000 0.000000 0.000000 0.000000 0.000000 -17.402869 24.864406 12.811223 19.505521 -58.234177 -1.738239 -10.201067 0.655710 37.256386 11.052063 -4.045555 -41.500207 0.000000 0.000000 0.000000 0.000000 0.000000 0.000000 40.937989 13.915000 -22.193725 -51.562908 -13.561264 -4.941486 6.449695 7.348224 32.718238 0.000000 0.000000 0.000000 53.635234 45.055715 -30.439851 -3.634511 -43.946329 8.646158 18.494201 56.562134 -37.790461 0.000000 0.000000 0.000000
-24.028246 51.409147 366.148548 -13.216332 -17.354347 1.956268 -0.273411 -0.256993 -4.376902 0.225166 0.862134 -0.486239 -3.139001 21.087300 -3.987637 0.000000 0.000000 0.000000 37.965316 -2.333882 1.014537 37.588403 49.591738 -49.454654 -18.841779 30.400922 -0.605992 28.056287 35.980291 19.838586 0.000000 0.000000 0.000000 0.000000 0.000000 0.000000 -12.463910 20.103635 8.851944 24.526910 -66.609350 -0.725426 -15.806359 11.294843 46.912280 6.203302 -12.822411 -47.860270 0.000000 0.000000 0.000000 0.000000 0.000000 0.000000 39.036705 6.136418 -16.361065 -51.941929 -5.942494 1.271212 1.121140 11.185354 38.232224 0.000000 0.000000 0.000000 43.360154 45.426832 -21.418236 -0.332412 -41.028594 9.137616 18.413836 57.751910 -37.789648 0.000000 0.000000 0.000000
-21.932702 51.408279 365.947104 -9.721949 -15.410149 2.099477 -0.404849 -0.133376 -3.666082 -0.091152 0.619651 -0.362541 -5.015104 17.165587 -4.003309 0.000000 0.000000 0.000000 44.127116 9.172592 -5.103474 14.265254 37.539878 -29.376795 -17.624037 37.236468 -1.108091 27.936407 32.666702 21.621764 0.000000 0.000000 0.000000 0.000000 0.000000 0.000000 -12.042446 13.431093 5.970641 26.391383 -66.839896 -0.777115 -26.583792 29.743314 47.704204 1.342298 -31.378358 -44.096864 0.000000 0.000000 0.000000 0.000000 0.000000 0.000000 36.213079 8.726168 -15.670837 -48.188314 -6.698507 0.390581 -6.339512 4.342318 42.800930 0.000000 0.000000 0.000000 32.132476 44.377016 -15.208284 4.114701 -39.546429 9.810768 17.003701 54.527465 -36.158937 0.000000 0.000000 0.000000
